ffmpeg version 4.4.2-0ubuntu0.22.04.1 Copyright (c) 2000-2021 the FFmpeg developers
  built with gcc 11 (Ubuntu 11.2.0-19ubuntu1)
  configuration: --prefix=/usr --extra-version=0ubuntu0.22.04.1 --toolchain=hardened --libdir=/usr/lib/aarch64-linux-gnu --incdir=/usr/include/aarch64-linux-gnu --arch=arm64 --enable-gpl --disable-stripping --enable-gnutls --enable-ladspa --enable-libaom --enable-libass --enable-libbluray --enable-libbs2b --enable-libcaca --enable-libcdio --enable-libcodec2 --enable-libdav1d --enable-libflite --enable-libfontconfig --enable-libfreetype --enable-libfribidi --enable-libgme --enable-libgsm --enable-libjack --enable-libmp3lame --enable-libmysofa --enable-libopenjpeg --enable-libopenmpt --enable-libopus --enable-libpulse --enable-librabbitmq --enable-librubberband --enable-libshine --enable-libsnappy --enable-libsoxr --enable-libspeex --enable-libsrt --enable-libssh --enable-libtheora --enable-libtwolame --enable-libvidstab --enable-libvorbis --enable-libvpx --enable-libwebp --enable-libx265 --enable-libxml2 --enable-libxvid --enable-libzimg --enable-libzmq --enable-libzvbi --enable-lv2 --enable-omx --enable-openal --enable-opencl --enable-opengl --enable-sdl2 --enable-pocketsphinx --enable-librsvg --enable-libdc1394 --enable-libdrm --enable-libiec61883 --enable-chromaprint --enable-frei0r --enable-libx264 --enable-shared
  libavutil      56. 70.100 / 56. 70.100
  libavcodec     58.134.100 / 58.134.100
  libavformat    58. 76.100 / 58. 76.100
  libavdevice    58. 13.100 / 58. 13.100
  libavfilter     7.110.100 /  7.110.100
  libswscale      5.  9.100 /  5.  9.100
  libswresample   3.  9.100 /  3.  9.100
  libpostproc    55.  9.100 / 55.  9.100
Input #0, mpegts, from '/tmp/stream_live1.pipe':
  Duration: N/A, start: 1.400000, bitrate: N/A
  Program 1 
    Metadata:
      service_name    : Service01
      service_provider: FFmpeg
  Stream #0:0[0x100]: Video: h264 (Constrained Baseline) ([27][0][0][0] / 0x001B), yuv420p(tv, bt709, progressive), 1920x1080 [SAR 1:1 DAR 16:9], 30 fps, 30 tbr, 90k tbn, 60 tbc
  Stream #0:1[0x101](eng): Audio: aac (LC) ([15][0][0][0] / 0x000F), 48000 Hz, stereo, fltp, 202 kb/s
Output #0, flv, to 'rtmp://localhost/live1/stream':
  Metadata:
    encoder         : Lavf58.76.100
  Stream #0:0: Video: h264 (Constrained Baseline) ([7][0][0][0] / 0x0007), yuv420p(tv, bt709, progressive), 1920x1080 [SAR 1:1 DAR 16:9], q=2-31, 30 fps, 30 tbr, 1k tbn, 90k tbc
  Stream #0:1(eng): Audio: aac (LC) ([10][0][0][0] / 0x000A), 48000 Hz, stereo, fltp, 202 kb/s
Stream mapping:
  Stream #0:0 -> #0:0 (copy)
  Stream #0:1 -> #0:1 (copy)
Press [q] to stop, [?] for help
frame=    1 fps=0.0 q=-1.0 size=       0kB time=00:00:00.05 bitrate=  57.3kbits/s speed=N/A    frame=   13 fps=0.0 q=-1.0 size=     297kB time=00:00:00.50 bitrate=4844.0kbits/s speed=1.01x    frame=   29 fps= 29 q=-1.0 size=     611kB time=00:00:01.01 bitrate=4929.3kbits/s speed=1.01x    frame=   45 fps= 30 q=-1.0 size=     893kB time=00:00:01.52 bitrate=4806.5kbits/s speed=   1x    frame=   59 fps= 29 q=-1.0 size=    1235kB time=00:00:02.01 bitrate=5016.0kbits/s speed=0.997x    frame=   74 fps= 29 q=-1.0 size=    1543kB time=00:00:02.52 bitrate=4998.1kbits/s speed=   1x    frame=   90 fps= 30 q=-1.0 size=    1767kB time=00:00:03.02 bitrate=4789.0kbits/s speed=0.997x    frame=  106 fps= 30 q=-1.0 size=    2015kB time=00:00:03.55 bitrate=4643.1kbits/s speed=1.01x    frame=  120 fps= 30 q=-1.0 size=    2281kB time=00:00:04.04 bitrate=4620.7kbits/s speed=   1x    frame=  135 fps= 30 q=-1.0 size=    2667kB time=00:00:04.55 bitrate=4796.3kbits/s speed=   1x    frame=  151 fps= 30 q=-1.0 size=    2863kB time=00:00:05.05 bitrate=4638.4kbits/s speed=   1x    frame=  167 fps= 30 q=-1.0 size=    3113kB time=00:00:05.58 bitrate=4563.0kbits/s speed=1.01x    frame=  180 fps= 30 q=-1.0 size=    3393kB time=00:00:06.07 bitrate=4578.6kbits/s speed=   1x    frame=  196 fps= 30 q=-1.0 size=    3877kB time=00:00:06.58 bitrate=4824.6kbits/s speed=   1x    frame=  212 fps= 30 q=-1.0 size=    4248kB time=00:00:07.08 bitrate=4909.2kbits/s speed=   1x    frame=  227 fps= 30 q=-1.0 size=    4567kB time=00:00:07.58 bitrate=4929.6kbits/s speed=   1x    frame=  240 fps= 30 q=-1.0 size=    4873kB time=00:00:08.09 bitrate=4930.3kbits/s speed=   1x    frame=  256 fps= 30 q=-1.0 size=    5337kB time=00:00:08.60 bitrate=5078.3kbits/s speed=   1x    frame=  272 fps= 30 q=-1.0 size=    5575kB time=00:00:09.08 bitrate=5024.6kbits/s speed=   1x    frame=  286 fps= 30 q=-1.0 size=    5837kB time=00:00:09.61 bitrate=4974.8kbits/s speed=   1x    frame=  302 fps= 30 q=-1.0 size=    6367kB time=00:00:10.12 bitrate=5152.0kbits/s speed=   1x    frame=  318 fps= 30 q=-1.0 size=    6577kB time=00:00:10.62 bitrate=5072.5kbits/s speed=   1x    frame=  332 fps= 30 q=-1.0 size=    6851kB time=00:00:11.10 bitrate=5053.6kbits/s speed=0.999x    frame=  347 fps= 30 q=-1.0 size=    7120kB time=00:00:11.63 bitrate=5011.5kbits/s speed=   1x    frame=  363 fps= 30 q=-1.0 size=    7643kB time=00:00:12.12 bitrate=5164.8kbits/s speed=0.999x    frame=  379 fps= 30 q=-1.0 size=    7925kB time=00:00:12.65 bitrate=5129.5kbits/s speed=   1x    frame=  393 fps= 30 q=-1.0 size=    8254kB time=00:00:13.15 bitrate=5140.8kbits/s speed=   1x    frame=  409 fps= 30 q=-1.0 size=    8550kB time=00:00:13.65 bitrate=5128.9kbits/s speed=   1x    frame=  424 fps= 30 q=-1.0 size=    9115kB time=00:00:14.15 bitrate=5274.5kbits/s speed=   1x    frame=  438 fps= 30 q=-1.0 size=    9381kB time=00:00:14.66 bitrate=5239.3kbits/s speed=   1x    frame=  454 fps= 30 q=-1.0 size=    9669kB time=00:00:15.18 bitrate=5217.8kbits/s speed=   1x    frame=  470 fps= 30 q=-1.0 size=    9933kB time=00:00:15.68 bitrate=5186.4kbits/s speed=   1x    frame=  484 fps= 30 q=-1.0 size=   10466kB time=00:00:16.18 bitrate=5298.2kbits/s speed=   1x    frame=  499 fps= 30 q=-1.0 size=   10719kB time=00:00:16.69 bitrate=5259.8kbits/s speed=   1x    frame=  515 fps= 30 q=-1.0 size=   10990kB time=00:00:17.18 bitrate=5237.6kbits/s speed=0.999x    frame=  531 fps= 30 q=-1.0 size=   11272kB time=00:00:17.72 bitrate=5210.5kbits/s speed=   1x    frame=  545 fps= 30 q=-1.0 size=   11810kB time=00:00:18.20 bitrate=5313.0kbits/s speed=   1x    frame=  560 fps= 30 q=-1.0 size=   12199kB time=00:00:18.74 bitrate=5331.6kbits/s speed=   1x    frame=  576 fps= 30 q=-1.0 size=   12526kB time=00:00:19.22 bitrate=5338.3kbits/s speed=   1x    frame=  590 fps= 30 q=-1.0 size=   12864kB time=00:00:19.72 bitrate=5343.0kbits/s speed=   1x    frame=  605 fps= 30 q=-1.0 size=   13350kB time=00:00:20.25 bitrate=5398.8kbits/s speed=   1x    frame=  621 fps= 30 q=-1.0 size=   13609kB time=00:00:20.76 bitrate=5367.8kbits/s speed=   1x    frame=  637 fps= 30 q=-1.0 size=   13848kB time=00:00:21.25 bitrate=5336.9kbits/s speed=   1x    frame=  651 fps= 30 q=-1.0 size=   14119kB time=00:00:21.75 bitrate=5317.7kbits/s speed=   1x    frame=  666 fps= 30 q=-1.0 size=   14608kB time=00:00:22.28 bitrate=5370.3kbits/s speed=   1x    frame=  682 fps= 30 q=-1.0 size=   14877kB time=00:00:22.79 bitrate=5346.1kbits/s speed=   1x    frame=  698 fps= 30 q=-1.0 size=   15130kB time=00:00:23.28 bitrate=5322.0kbits/s speed=   1x    frame=  712 fps= 30 q=-1.0 size=   15419kB time=00:00:23.77 bitrate=5312.3kbits/s speed=   1x    frame=  727 fps= 30 q=-1.0 size=   15911kB time=00:00:24.28 bitrate=5366.4kbits/s speed=   1x    frame=  743 fps= 30 q=-1.0 size=   16192kB time=00:00:24.78 bitrate=5350.9kbits/s speed=   1x    frame=  759 fps= 30 q=-1.0 size=   16486kB time=00:00:25.32 bitrate=5333.5kbits/s speed=   1x    frame=  773 fps= 30 q=-1.0 size=   16914kB time=00:00:25.80 bitrate=5369.7kbits/s speed=   1x    frame=  788 fps= 30 q=-1.0 size=   17412kB time=00:00:26.31 bitrate=5420.3kbits/s speed=   1x    frame=  804 fps= 30 q=-1.0 size=   17645kB time=00:00:26.82 bitrate=5389.3kbits/s speed=   1x    frame=  818 fps= 30 q=-1.0 size=   17921kB time=00:00:27.31 bitrate=5373.9kbits/s speed=   1x    frame=  834 fps= 30 q=-1.0 size=   18185kB time=00:00:27.82 bitrate=5354.3kbits/s speed=   1x    frame=  848 fps= 30 q=-1.0 size=   18709kB time=00:00:28.32 bitrate=5411.7kbits/s speed=   1x    frame=  864 fps= 30 q=-1.0 size=   18955kB time=00:00:28.85 bitrate=5381.4kbits/s speed=   1x    frame=  880 fps= 30 q=-1.0 size=   19274kB time=00:00:29.35 bitrate=5378.7kbits/s speed=   1x    frame=  894 fps= 30 q=-1.0 size=   19787kB time=00:00:29.87 bitrate=5425.1kbits/s speed=   1x    frame=  910 fps= 30 q=-1.0 size=   20339kB time=00:00:30.35 bitrate=5488.8kbits/s speed=   1x    frame=  926 fps= 30 q=-1.0 size=   20508kB time=00:00:30.88 bitrate=5438.8kbits/s speed=   1x    frame=  940 fps= 30 q=-1.0 size=   20631kB time=00:00:31.39 bitrate=5383.6kbits/s speed=   1x    frame=  956 fps= 30 q=-1.0 size=   20771kB time=00:00:31.88 bitrate=5336.0kbits/s speed=   1x    frame=  972 fps= 30 q=-1.0 size=   21039kB time=00:00:32.42 bitrate=5315.8kbits/s speed=   1x    frame=  985 fps= 30 q=-1.0 size=   21131kB time=00:00:32.90 bitrate=5260.3kbits/s speed=   1x    frame= 1001 fps= 30 q=-1.0 size=   21256kB time=00:00:33.42 bitrate=5210.4kbits/s speed=   1x    frame= 1017 fps= 30 q=-1.0 size=   21373kB time=00:00:33.92 bitrate=5161.5kbits/s speed=   1x    frame= 1031 fps= 30 q=-1.0 size=   21721kB time=00:00:34.40 bitrate=5172.5kbits/s speed=   1x    frame= 1046 fps= 30 q=-1.0 size=   21815kB time=00:00:34.93 bitrate=5115.5kbits/s speed=   1x    frame= 1062 fps= 30 q=-1.0 size=   21943kB time=00:00:35.42 bitrate=5074.8kbits/s speed=   1x    frame= 1077 fps= 30 q=-1.0 size=   22072kB time=00:00:35.93 bitrate=5031.5kbits/s speed=   1x    frame= 1092 fps= 30 q=-1.0 size=   22668kB time=00:00:36.44 bitrate=5094.7kbits/s speed=   1x    frame= 1108 fps= 30 q=-1.0 size=   22930kB time=00:00:36.95 bitrate=5082.8kbits/s speed=   1x    frame= 1122 fps= 30 q=-1.0 size=   23142kB time=00:00:37.45 bitrate=5061.9kbits/s speed=   1x    frame= 1137 fps= 30 q=-1.0 size=   23370kB time=00:00:37.98 bitrate=5040.1kbits/s speed=   1x    frame= 1153 fps= 30 q=-1.0 size=   23728kB time=00:00:38.47 bitrate=5051.9kbits/s speed=   1x    frame= 1168 fps= 30 q=-1.0 size=   23861kB time=00:00:38.96 bitrate=5016.3kbits/s speed=   1x    frame= 1183 fps= 30 q=-1.0 size=   24245kB time=00:00:39.50 bitrate=5028.1kbits/s speed=   1x    frame= 1198 fps= 30 q=-1.0 size=   25162kB time=00:00:39.99 bitrate=5154.3kbits/s speed=   1x    frame= 1215 fps= 30 q=-1.0 size=   25687kB time=00:00:40.52 bitrate=5192.9kbits/s speed=   1x    frame= 1230 fps= 30 q=-1.0 size=   25967kB time=00:00:41.02 bitrate=5185.6kbits/s speed=   1x    frame= 1244 fps= 30 q=-1.0 size=   26278kB time=00:00:41.52 bitrate=5183.8kbits/s speed=   1x    frame= 1260 fps= 30 q=-1.0 size=   26560kB time=00:00:42.02 bitrate=5177.7kbits/s speed=   1x    frame= 1273 fps= 30 q=-1.0 size=   27032kB time=00:00:42.52 bitrate=5206.9kbits/s speed=   1x    frame= 1289 fps= 30 q=-1.0 size=   27390kB time=00:00:43.04 bitrate=5213.1kbits/s speed=   1x    frame= 1305 fps= 30 q=-1.0 size=   27718kB time=00:00:43.52 bitrate=5217.2kbits/s speed=   1x    frame= 1321 fps= 30 q=-1.0 size=   28051kB time=00:00:44.05 bitrate=5215.9kbits/s speed=   1x    frame= 1335 fps= 30 q=-1.0 size=   28430kB time=00:00:44.55 bitrate=5227.0kbits/s speed=   1x    frame= 1351 fps= 30 q=-1.0 size=   28666kB time=00:00:45.05 bitrate=5212.0kbits/s speed=   1x    frame= 1366 fps= 30 q=-1.0 size=   28986kB time=00:00:45.55 bitrate=5211.9kbits/s speed=   1x    frame= 1381 fps= 30 q=-1.0 size=   29279kB time=00:00:46.05 bitrate=5207.8kbits/s speed=   1x    frame= 1396 fps= 30 q=-1.0 size=   29741kB time=00:00:46.58 bitrate=5230.3kbits/s speed=   1x    frame= 1411 fps= 30 q=-1.0 size=   30002kB time=00:00:47.07 bitrate=5221.1kbits/s speed=   1x    frame= 1425 fps= 30 q=-1.0 size=   30295kB time=00:00:47.56 bitrate=5217.7kbits/s speed=   1x    frame= 1440 fps= 30 q=-1.0 size=   30706kB time=00:00:48.09 bitrate=5229.8kbits/s speed=   1x    frame= 1456 fps= 30 q=-1.0 size=   31167kB time=00:00:48.58 bitrate=5254.7kbits/s speed=   1x    frame= 1472 fps= 30 q=-1.0 size=   31445kB time=00:00:49.08 bitrate=5247.5kbits/s speed=   1x    frame= 1486 fps= 30 q=-1.0 size=   31736kB time=00:00:49.59 bitrate=5242.5kbits/s speed=   1x    frame= 1502 fps= 30 q=-1.0 size=   32311kB time=00:00:50.12 bitrate=5280.7kbits/s speed=   1x    frame= 1518 fps= 30 q=-1.0 size=   32545kB time=00:00:50.62 bitrate=5266.6kbits/s speed=   1x    frame= 1531 fps= 30 q=-1.0 size=   32795kB time=00:00:51.12 bitrate=5254.7kbits/s speed=   1x    frame= 1547 fps= 30 q=-1.0 size=   33109kB time=00:00:51.63 bitrate=5252.3kbits/s speed=   1x    frame= 1563 fps= 30 q=-1.0 size=   33639kB time=00:00:52.12 bitrate=5287.1kbits/s speed=   1x    frame= 1577 fps= 30 q=-1.0 size=   33993kB time=00:00:52.64 bitrate=5290.1kbits/s speed=   1x    frame= 1593 fps= 30 q=-1.0 size=   34320kB time=00:00:53.15 bitrate=5289.4kbits/s speed=   1x    frame= 1609 fps= 30 q=-1.0 size=   34609kB time=00:00:53.65 bitrate=5283.9kbits/s speed=   1x    frame= 1623 fps= 30 q=-1.0 size=   35111kB time=00:00:54.15 bitrate=5311.1kbits/s speed=   1x    frame= 1638 fps= 30 q=-1.0 size=   35340kB time=00:00:54.66 bitrate=5295.8kbits/s speed=   1x    frame= 1654 fps= 30 q=-1.0 size=   35633kB time=00:00:55.18 bitrate=5290.1kbits/s speed=   1x    frame= 1670 fps= 30 q=-1.0 size=   35905kB time=00:00:55.68 bitrate=5281.6kbits/s speed=   1x    frame= 1685 fps= 30 q=-1.0 size=   36429kB time=00:00:56.18 bitrate=5311.1kbits/s speed=   1x    frame= 1700 fps= 30 q=-1.0 size=   36667kB time=00:00:56.68 bitrate=5298.6kbits/s speed=   1x    frame= 1716 fps= 30 q=-1.0 size=   36949kB time=00:00:57.22 bitrate=5289.7kbits/s speed=   1x    frame= 1729 fps= 30 q=-1.0 size=   37210kB time=00:00:57.69 bitrate=5283.2kbits/s speed=   1x    frame= 1745 fps= 30 q=-1.0 size=   37811kB time=00:00:58.20 bitrate=5321.3kbits/s speed=   1x    frame= 1761 fps= 30 q=-1.0 size=   38133kB time=00:00:58.72 bitrate=5319.8kbits/s speed=   1x    frame= 1775 fps= 30 q=-1.0 size=   38439kB time=00:00:59.21 bitrate=5318.1kbits/s speed=   1x    frame= 1791 fps= 30 q=-1.0 size=   38707kB time=00:00:59.72 bitrate=5309.4kbits/s speed=   1x    frame= 1807 fps= 30 q=-1.0 size=   39224kB time=00:01:00.25 bitrate=5332.6kbits/s speed=   1x    frame= 1820 fps= 30 q=-1.0 size=   39485kB time=00:01:00.74 bitrate=5324.6kbits/s speed=   1x    frame= 1837 fps= 30 q=-1.0 size=   39751kB time=00:01:01.25 bitrate=5316.1kbits/s speed=   1x    frame= 1850 fps= 30 q=-1.0 size=   40014kB time=00:01:01.75 bitrate=5308.3kbits/s speed=   1x    frame= 1866 fps= 30 q=-1.0 size=   40511kB time=00:01:02.26 bitrate=5330.1kbits/s speed=   1x    frame= 1882 fps= 30 q=-1.0 size=   40769kB time=00:01:02.75 bitrate=5321.8kbits/s speed=   1x    frame= 1897 fps= 30 q=-1.0 size=   41031kB time=00:01:03.25 bitrate=5313.8kbits/s speed=   1x    frame= 1911 fps= 30 q=-1.0 size=   41296kB time=00:01:03.75 bitrate=5306.1kbits/s speed=   1x    frame= 1926 fps= 30 q=-1.0 size=   41871kB time=00:01:04.26 bitrate=5337.1kbits/s speed=   1x    frame= 1942 fps= 30 q=-1.0 size=   42146kB time=00:01:04.78 bitrate=5329.7kbits/s speed=   1x    frame= 1958 fps= 30 q=-1.0 size=   42387kB time=00:01:05.28 bitrate=5318.4kbits/s speed=   1x    frame= 1972 fps= 30 q=-1.0 size=   42669kB time=00:01:05.78 bitrate=5313.6kbits/s speed=   1x    frame= 1988 fps= 30 q=-1.0 size=   43117kB time=00:01:06.28 bitrate=5328.4kbits/s speed=   1x    frame= 2002 fps= 30 q=-1.0 size=   43380kB time=00:01:06.78 bitrate=5321.1kbits/s speed=   1x    frame= 2017 fps= 30 q=-1.0 size=   43636kB time=00:01:07.31 bitrate=5310.0kbits/s speed=   1x    frame= 2033 fps= 30 q=-1.0 size=   43915kB time=00:01:07.80 bitrate=5305.4kbits/s speed=   1x    frame= 2049 fps= 30 q=-1.0 size=   44366kB time=00:01:08.32 bitrate=5319.6kbits/s speed=   1x    frame= 2063 fps= 30 q=-1.0 size=   44738kB time=00:01:08.81 bitrate=5326.1kbits/s speed=   1x    frame= 2079 fps= 30 q=-1.0 size=   45028kB time=00:01:09.32 bitrate=5321.1kbits/s speed=   1x    frame= 2095 fps= 30 q=-1.0 size=   45325kB time=00:01:09.85 bitrate=5315.2kbits/s speed=   1x    frame= 2108 fps= 30 q=-1.0 size=   45794kB time=00:01:10.32 bitrate=5334.3kbits/s speed=   1x    frame= 2123 fps= 30 q=-1.0 size=   46023kB time=00:01:10.86 bitrate=5320.7kbits/s speed=   1x    frame= 2141 fps= 30 q=-1.0 size=   46288kB time=00:01:11.38 bitrate=5311.6kbits/s speed=   1x    frame= 2156 fps= 30 q=-1.0 size=   46539kB time=00:01:11.88 bitrate=5303.3kbits/s speed=   1x    frame= 2169 fps= 30 q=-1.0 size=   47017kB time=00:01:12.37 bitrate=5321.8kbits/s speed=   1x    frame= 2185 fps= 30 q=-1.0 size=   47282kB time=00:01:12.88 bitrate=5314.1kbits/s speed=   1x    frame= 2201 fps= 30 q=-1.0 size=   47534kB time=00:01:13.38 bitrate=5305.9kbits/s speed=   1x    frame= 2216 fps= 30 q=-1.0 size=   47971kB time=00:01:13.88 bitrate=5318.5kbits/s speed=   1x    frame= 2230 fps= 30 q=-1.0 size=   48456kB time=00:01:14.40 bitrate=5335.3kbits/s speed=   1x    frame= 2246 fps= 30 q=-1.0 size=   48715kB time=00:01:14.88 bitrate=5328.8kbits/s speed=   1x    frame= 2262 fps= 30 q=-1.0 size=   48975kB time=00:01:15.42 bitrate=5319.4kbits/s speed=   1x    frame= 2275 fps= 30 q=-1.0 size=   49235kB time=00:01:15.91 bitrate=5312.9kbits/s speed=   1x    frame= 2291 fps= 30 q=-1.0 size=   49712kB time=00:01:16.40 bitrate=5329.9kbits/s speed=   1x    frame= 2305 fps= 30 q=-1.0 size=   49933kB time=00:01:16.89 bitrate=5319.5kbits/s speed=   1x    frame= 2320 fps= 30 q=-1.0 size=   50183kB time=00:01:17.43 bitrate=5309.2kbits/s speed=   1x    frame= 2337 fps= 30 q=-1.0 size=   50464kB time=00:01:17.92 bitrate=5305.4kbits/s speed=   1x    frame= 2351 fps= 30 q=-1.0 size=   50953kB time=00:01:18.43 bitrate=5321.8kbits/s speed=   1x    frame= 2366 fps= 30 q=-1.0 size=   51222kB time=00:01:18.94 bitrate=5315.3kbits/s speed=   1x    frame= 2382 fps= 30 q=-1.0 size=   51516kB time=00:01:19.45 bitrate=5311.3kbits/s speed=   1x    frame= 2398 fps= 30 q=-1.0 size=   51760kB time=00:01:19.95 bitrate=5303.1kbits/s speed=   1x    frame= 2413 fps= 30 q=-1.0 size=   52341kB time=00:01:20.45 bitrate=5329.4kbits/s speed=   1x    frame= 2427 fps= 30 q=-1.0 size=   52685kB time=00:01:20.97 bitrate=5330.2kbits/s speed=   1x    frame= 2443 fps= 30 q=-1.0 size=   52966kB time=00:01:21.45 bitrate=5326.8kbits/s speed=   1x    frame= 2459 fps= 30 q=-1.0 size=   53250kB time=00:01:21.98 bitrate=5320.5kbits/s speed=   1x    frame= 2472 fps= 30 q=-1.0 size=   53719kB time=00:01:22.48 bitrate=5335.0kbits/s speed=   1x    frame= 2488 fps= 30 q=-1.0 size=   53986kB time=00:01:22.97 bitrate=5329.9kbits/s speed=   1x    frame= 2504 fps= 30 q=-1.0 size=   54235kB time=00:01:23.48 bitrate=5321.6kbits/s speed=   1x    frame= 2518 fps= 30 q=-1.0 size=   54521kB time=00:01:24.00 bitrate=5317.0kbits/s speed=   1x    frame= 2534 fps= 30 q=-1.0 size=   55042kB time=00:01:24.51 bitrate=5335.3kbits/s speed=   1x    frame= 2550 fps= 30 q=-1.0 size=   55300kB time=00:01:25.02 bitrate=5328.3kbits/s speed=   1x    frame= 2564 fps= 30 q=-1.0 size=   55577kB time=00:01:25.51 bitrate=5324.0kbits/s speed=   1x    frame= 2580 fps= 30 q=-1.0 size=   55877kB time=00:01:26.04 bitrate=5319.5kbits/s speed=   1x    frame= 2596 fps= 30 q=-1.0 size=   56328kB time=00:01:26.55 bitrate=5331.1kbits/s speed=   1x    frame= 2611 fps= 30 q=-1.0 size=   56728kB time=00:01:27.05 bitrate=5338.1kbits/s speed=   1x    frame= 2625 fps= 30 q=-1.0 size=   57026kB time=00:01:27.56 bitrate=5335.0kbits/s speed=   1x    frame= 2642 fps= 30 q=-1.0 size=   57290kB time=00:01:28.08 bitrate=5327.8kbits/s speed=   1x    frame= 2656 fps= 30 q=-1.0 size=   57791kB time=00:01:28.56 bitrate=5345.4kbits/s speed=   1x    frame= 2671 fps= 30 q=-1.0 size=   58041kB time=00:01:29.07 bitrate=5337.6kbits/s speed=   1x    frame= 2687 fps= 30 q=-1.0 size=   58289kB time=00:01:29.58 bitrate=5330.0kbits/s speed=   1x    frame= 2703 fps= 30 q=-1.0 size=   58798kB time=00:01:30.12 bitrate=5344.7kbits/s speed=   1x    frame= 2716 fps= 30 q=-1.0 size=   59033kB time=00:01:30.59 bitrate=5338.2kbits/s speed=   1x    frame= 2732 fps= 30 q=-1.0 size=   59322kB time=00:01:31.10 bitrate=5334.1kbits/s speed=   1x    frame= 2747 fps= 30 q=-1.0 size=   59587kB time=00:01:31.61 bitrate=5328.0kbits/s speed=   1x    frame= 2763 fps= 30 q=-1.0 size=   60085kB time=00:01:32.12 bitrate=5343.1kbits/s speed=   1x    frame= 2776 fps= 30 q=-1.0 size=   60315kB time=00:01:32.62 bitrate=5334.7kbits/s speed=   1x    frame= 2792 fps= 30 q=-1.0 size=   60761kB time=00:01:33.13 bitrate=5344.6kbits/s speed=   1x    frame= 2808 fps= 30 q=-1.0 size=   61063kB time=00:01:33.62 bitrate=5343.0kbits/s speed=   1x    frame= 2824 fps= 30 q=-1.0 size=   61563kB time=00:01:34.15 bitrate=5356.3kbits/s speed=   1x    frame= 2837 fps= 30 q=-1.0 size=   61790kB time=00:01:34.64 bitrate=5348.1kbits/s speed=   1x    frame= 2853 fps= 30 q=-1.0 size=   62038kB time=00:01:35.13 bitrate=5342.0kbits/s speed=   1x    frame= 2869 fps= 30 q=-1.0 size=   62276kB time=00:01:35.65 bitrate=5333.4kbits/s speed=   1x    frame= 2882 fps= 30 q=-1.0 size=   62763kB time=00:01:36.16 bitrate=5346.8kbits/s speed=   1x    frame= 2898 fps= 30 q=-1.0 size=   63026kB time=00:01:36.65 bitrate=5341.9kbits/s speed=   1x    frame= 2914 fps= 30 q=-1.0 size=   63284kB time=00:01:37.15 bitrate=5336.0kbits/s speed=   1x    frame= 2927 fps= 30 q=-1.0 size=   63533kB time=00:01:37.65 bitrate=5329.6kbits/s speed=   1x    frame= 2943 fps= 30 q=-1.0 size=   64046kB time=00:01:38.16 bitrate=5344.6kbits/s speed=   1x    frame= 2960 fps= 30 q=-1.0 size=   64295kB time=00:01:38.68 bitrate=5337.0kbits/s speed=   1x    frame= 2975 fps= 30 q=-1.0 size=   64546kB time=00:01:39.18 bitrate=5330.8kbits/s speed=   1x    frame= 2989 fps= 30 q=-1.0 size=   64819kB time=00:01:39.68 bitrate=5326.9kbits/s speed=   1x    frame= 3005 fps= 30 q=-1.0 size=   65448kB time=00:01:40.18 bitrate=5351.4kbits/s speed=   1x    frame= 3019 fps= 30 q=-1.0 size=   65696kB time=00:01:40.68 bitrate=5345.3kbits/s speed=   1x    frame= 3034 fps= 30 q=-1.0 size=   65944kB time=00:01:41.21 bitrate=5337.2kbits/s speed=   1x    frame= 3049 fps= 30 q=-1.0 size=   66206kB time=00:01:41.70 bitrate=5332.5kbits/s speed=   1x    frame= 3065 fps= 30 q=-1.0 size=   66698kB time=00:01:42.22 bitrate=5345.2kbits/s speed=   1x    frame= 3081 fps= 30 q=-1.0 size=   66963kB time=00:01:42.72 bitrate=5340.3kbits/s speed=   1x    frame= 3095 fps= 30 q=-1.0 size=   67227kB time=00:01:43.22 bitrate=5335.3kbits/s speed=   1x    frame= 3112 fps= 30 q=-1.0 size=   67495kB time=00:01:43.75 bitrate=5329.0kbits/s speed=   1x    frame= 3125 fps= 30 q=-1.0 size=   67990kB time=00:01:44.24 bitrate=5342.9kbits/s speed=   1x    frame= 3141 fps= 30 q=-1.0 size=   68266kB time=00:01:44.75 bitrate=5338.3kbits/s speed=   1x    frame= 3157 fps= 30 q=-1.0 size=   68531kB time=00:01:45.25 bitrate=5333.7kbits/s speed=   1x    frame= 3171 fps= 30 q=-1.0 size=   68803kB time=00:01:45.76 bitrate=5329.3kbits/s speed=   1x    frame= 3186 fps= 30 q=-1.0 size=   69285kB time=00:01:46.29 bitrate=5339.7kbits/s speed=   1x    frame= 3202 fps= 30 q=-1.0 size=   69728kB time=00:01:46.78 bitrate=5349.2kbits/s speed=   1x    frame= 3218 fps= 30 q=-1.0 size=   70240kB time=00:01:47.28 bitrate=5363.1kbits/s speed=   1x    frame= 3233 fps= 30 q=-1.0 size=   70526kB time=00:01:47.78 bitrate=5360.0kbits/s speed=   1x    frame= 3249 fps= 30 q=-1.0 size=   70814kB time=00:01:48.32 bitrate=5355.4kbits/s speed=   1x    frame= 3263 fps= 30 q=-1.0 size=   70944kB time=00:01:48.81 bitrate=5341.1kbits/s speed=   1x    frame= 3279 fps= 30 q=-1.0 size=   71052kB time=00:01:49.32 bitrate=5324.2kbits/s speed=   1x    frame= 3293 fps= 30 q=-1.0 size=   71189kB time=00:01:49.81 bitrate=5310.6kbits/s speed=   1x    frame= 3307 fps= 30 q=-1.0 size=   71456kB time=00:01:50.32 bitrate=5305.7kbits/s speed=   1x    frame= 3323 fps= 30 q=-1.0 size=   71568kB time=00:01:50.83 bitrate=5289.5kbits/s speed=   1x    frame= 3339 fps= 30 q=-1.0 size=   71875kB time=00:01:51.35 bitrate=5287.8kbits/s speed=   1x    frame= 3355 fps= 30 q=-1.0 size=   72027kB time=00:01:51.85 bitrate=5275.1kbits/s speed=   1x    frame= 3368 fps= 30 q=-1.0 size=   72338kB time=00:01:52.35 bitrate=5274.4kbits/s speed=   1x    frame= 3385 fps= 30 q=-1.0 size=   72472kB time=00:01:52.85 bitrate=5260.6kbits/s speed=   1x    frame= 3399 fps= 30 q=-1.0 size=   72599kB time=00:01:53.37 bitrate=5245.6kbits/s speed=   1x    frame= 3415 fps= 30 q=-1.0 size=   72752kB time=00:01:53.85 bitrate=5234.5kbits/s speed=   1x    frame= 3429 fps= 30 q=-1.0 size=   73099kB time=00:01:54.35 bitrate=5236.4kbits/s speed=   1x    frame= 3445 fps= 30 q=-1.0 size=   73243kB time=00:01:54.87 bitrate=5223.3kbits/s speed=   1x    frame= 3461 fps= 30 q=-1.0 size=   73368kB time=00:01:55.38 bitrate=5208.7kbits/s speed=   1x    frame= 3474 fps= 30 q=-1.0 size=   73516kB time=00:01:55.89 bitrate=5196.4kbits/s speed=   1x    frame= 3490 fps= 30 q=-1.0 size=   73927kB time=00:01:56.40 bitrate=5202.5kbits/s speed=   1x    frame= 3506 fps= 30 q=-1.0 size=   74205kB time=00:01:56.91 bitrate=5199.2kbits/s speed=   1x    frame= 3521 fps= 30 q=-1.0 size=   75077kB time=00:01:57.40 bitrate=5238.4kbits/s speed=   1x    frame= 3536 fps= 30 q=-1.0 size=   75651kB time=00:01:57.94 bitrate=5254.5kbits/s speed=   1x    frame= 3552 fps= 30 q=-1.0 size=   76169kB time=00:01:58.45 bitrate=5267.6kbits/s speed=   1x    frame= 3568 fps= 30 q=-1.0 size=   76404kB time=00:01:58.95 bitrate=5261.6kbits/s speed=   1x    frame= 3582 fps= 30 q=-1.0 size=   76691kB time=00:01:59.45 bitrate=5259.2kbits/s speed=   1x    frame= 3598 fps= 30 q=-1.0 size=   76989kB time=00:01:59.95 bitrate=5257.7kbits/s speed=   1x    frame= 3613 fps= 30 q=-1.0 size=   77431kB time=00:02:00.45 bitrate=5265.9kbits/s speed=   1x    frame= 3627 fps= 30 q=-1.0 size=   77710kB time=00:02:00.97 bitrate=5262.4kbits/s speed=   1x    frame= 3643 fps= 30 q=-1.0 size=   77997kB time=00:02:01.45 bitrate=5260.8kbits/s speed=   1x    frame= 3659 fps= 30 q=-1.0 size=   78446kB time=00:02:01.98 bitrate=5268.0kbits/s speed=   1x    frame= 3673 fps= 30 q=-1.0 size=   78881kB time=00:02:02.48 bitrate=5275.6kbits/s speed=   1x    frame= 3689 fps= 30 q=-1.0 size=   79118kB time=00:02:02.98 bitrate=5269.8kbits/s speed=   1x    frame= 3705 fps= 30 q=-1.0 size=   79373kB time=00:02:03.52 bitrate=5264.0kbits/s speed=   1x    frame= 3719 fps= 30 q=-1.0 size=   79696kB time=00:02:04.00 bitrate=5265.1kbits/s speed=   1x    frame= 3734 fps= 30 q=-1.0 size=   80149kB time=00:02:04.51 bitrate=5273.2kbits/s speed=   1x    frame= 3749 fps= 30 q=-1.0 size=   80412kB time=00:02:05.02 bitrate=5268.8kbits/s speed=   1x    frame= 3766 fps= 30 q=-1.0 size=   80696kB time=00:02:05.55 bitrate=5265.1kbits/s speed=   1x    frame= 3781 fps= 30 q=-1.0 size=   81005kB time=00:02:06.05 bitrate=5264.3kbits/s speed=   1x    frame= 3795 fps= 30 q=-1.0 size=   81504kB time=00:02:06.58 bitrate=5274.6kbits/s speed=   1x    frame= 3811 fps= 30 q=-1.0 size=   81821kB time=00:02:07.07 bitrate=5274.7kbits/s speed=   1x    frame= 3827 fps= 30 q=-1.0 size=   82096kB time=00:02:07.58 bitrate=5271.1kbits/s speed=   1x    frame= 3840 fps= 30 q=-1.0 size=   82511kB time=00:02:08.09 bitrate=5276.7kbits/s speed=   1x    frame= 3856 fps= 30 q=-1.0 size=   82981kB time=00:02:08.60 bitrate=5285.6kbits/s speed=   1x    frame= 3872 fps= 30 q=-1.0 size=   83242kB time=00:02:09.08 bitrate=5282.5kbits/s speed=   1x    frame= 3888 fps= 30 q=-1.0 size=   83536kB time=00:02:09.62 bitrate=5279.4kbits/s speed=   1x    frame= 3902 fps= 30 q=-1.0 size=   84055kB time=00:02:10.12 bitrate=5291.7kbits/s speed=   1x    frame= 3918 fps= 30 q=-1.0 size=   84286kB time=00:02:10.62 bitrate=5286.0kbits/s speed=   1x    frame= 3934 fps= 30 q=-1.0 size=   84546kB time=00:02:11.15 bitrate=5280.8kbits/s speed=   1x    frame= 3947 fps= 30 q=-1.0 size=   84808kB time=00:02:11.63 bitrate=5277.7kbits/s speed=   1x    frame= 3963 fps= 30 q=-1.0 size=   85325kB time=00:02:12.12 bitrate=5290.1kbits/s speed=0.999x    frame= 3979 fps= 30 q=-1.0 size=   85764kB time=00:02:12.70 bitrate=5294.3kbits/s speed=   1x    frame= 3995 fps= 30 q=-1.0 size=   86068kB time=00:02:13.21 bitrate=5292.6kbits/s speed=   1x    frame= 4010 fps= 30 q=-1.0 size=   86366kB time=00:02:13.70 bitrate=5291.4kbits/s speed=   1x    frame= 4025 fps= 30 q=-1.0 size=   86858kB time=00:02:14.24 bitrate=5300.5kbits/s speed=   1x    frame= 4042 fps= 30 q=-1.0 size=   87121kB time=00:02:14.75 bitrate=5296.2kbits/s speed=   1x    frame= 4055 fps= 30 q=-1.0 size=   87371kB time=00:02:15.24 bitrate=5292.2kbits/s speed=   1x    frame= 4071 fps= 30 q=-1.0 size=   87658kB time=00:02:15.75 bitrate=5289.6kbits/s speed=   1x    frame= 4086 fps= 30 q=-1.0 size=   88140kB time=00:02:16.24 bitrate=5299.5kbits/s speed=   1x    frame= 4100 fps= 30 q=-1.0 size=   88365kB time=00:02:16.75 bitrate=5293.2kbits/s speed=   1x    frame= 4117 fps= 30 q=-1.0 size=   88650kB time=00:02:17.27 bitrate=5290.4kbits/s speed=   1x    frame= 4133 fps= 30 q=-1.0 size=   88888kB time=00:02:17.78 bitrate=5284.7kbits/s speed=   1x    frame= 4146 fps= 30 q=-1.0 size=   89387kB time=00:02:18.29 bitrate=5294.9kbits/s speed=   1x    frame= 4162 fps= 30 q=-1.0 size=   89671kB time=00:02:18.80 bitrate=5292.2kbits/s speed=   1x    frame= 4178 fps= 30 q=-1.0 size=   90143kB time=00:02:19.31 bitrate=5300.4kbits/s speed=   1x    frame= 4194 fps= 30 q=-1.0 size=   90441kB time=00:02:19.82 bitrate=5298.8kbits/s speed=   1x    frame= 4207 fps= 30 q=-1.0 size=   90946kB time=00:02:20.32 bitrate=5309.5kbits/s speed=   1x    frame= 4223 fps= 30 q=-1.0 size=   91248kB time=00:02:20.83 bitrate=5307.7kbits/s speed=   1x    frame= 4240 fps= 30 q=-1.0 size=   91530kB time=00:02:21.35 bitrate=5304.4kbits/s speed=   1x    frame= 4253 fps= 30 q=-1.0 size=   91785kB time=00:02:21.83 bitrate=5301.2kbits/s speed=   1x    frame= 4269 fps= 30 q=-1.0 size=   92275kB time=00:02:22.34 bitrate=5310.3kbits/s speed=   1x    frame= 4285 fps= 30 q=-1.0 size=   92500kB time=00:02:22.85 bitrate=5304.3kbits/s speed=   1x    frame= 4299 fps= 30 q=-1.0 size=   92754kB time=00:02:23.35 bitrate=5300.6kbits/s speed=   1x    frame= 4314 fps= 30 q=-1.0 size=   93023kB time=00:02:23.88 bitrate=5296.2kbits/s speed=   1x    frame= 4331 fps= 30 q=-1.0 size=   93511kB time=00:02:24.38 bitrate=5305.4kbits/s speed=   1x    frame= 4346 fps= 30 q=-1.0 size=   93941kB time=00:02:24.88 bitrate=5311.4kbits/s speed=   1x    frame= 4362 fps= 30 q=-1.0 size=   94274kB time=00:02:25.42 bitrate=5310.7kbits/s speed=   1x    frame= 4375 fps= 30 q=-1.0 size=   94577kB time=00:02:25.91 bitrate=5309.9kbits/s speed=   1x    frame= 4391 fps= 30 q=-1.0 size=   95087kB time=00:02:26.40 bitrate=5320.7kbits/s speed=   1x    frame= 4405 fps= 30 q=-1.0 size=   95324kB time=00:02:26.91 bitrate=5315.4kbits/s speed=   1x    frame= 4421 fps= 30 q=-1.0 size=   95599kB time=00:02:27.42 bitrate=5312.2kbits/s speed=   1x    frame= 4437 fps= 30 q=-1.0 size=   95858kB time=00:02:27.92 bitrate=5308.6kbits/s speed=   1x    frame= 4451 fps= 30 q=-1.0 size=   96331kB time=00:02:28.42 bitrate=5316.7kbits/s speed=   1x    frame= 4467 fps= 30 q=-1.0 size=   96557kB time=00:02:28.92 bitrate=5311.5kbits/s speed=   1x    frame= 4483 fps= 30 q=-1.0 size=   96828kB time=00:02:29.45 bitrate=5307.3kbits/s speed=   1x    frame= 4496 fps= 30 q=-1.0 size=   97095kB time=00:02:29.94 bitrate=5304.7kbits/s speed=   1x    frame= 4512 fps= 30 q=-1.0 size=   97682kB time=00:02:30.45 bitrate=5318.6kbits/s speed=   1x    frame= 4526 fps= 30 q=-1.0 size=   97934kB time=00:02:30.94 bitrate=5315.0kbits/s speed=   1x    frame= 4542 fps= 30 q=-1.0 size=   98212kB time=00:02:31.45 bitrate=5312.1kbits/s speed=   1x    frame= 4558 fps= 30 q=-1.0 size=   98461kB time=00:02:31.95 bitrate=5308.0kbits/s speed=   1x    frame= 4574 fps= 30 q=-1.0 size=   98947kB time=00:02:32.48 bitrate=5315.6kbits/s speed=   1x    frame= 4587 fps= 30 q=-1.0 size=   99181kB time=00:02:32.97 bitrate=5311.4kbits/s speed=   1x    frame= 4603 fps= 30 q=-1.0 size=   99413kB time=00:02:33.45 bitrate=5307.0kbits/s speed=   1x    frame= 4619 fps= 30 q=-1.0 size=   99677kB time=00:02:33.98 bitrate=5302.7kbits/s speed=   1x    frame= 4632 fps= 30 q=-1.0 size=  100138kB time=00:02:34.48 bitrate=5310.0kbits/s speed=   1x    frame= 4648 fps= 30 q=-1.0 size=  100388kB time=00:02:34.99 bitrate=5305.7kbits/s speed=   1x    frame= 4664 fps= 30 q=-1.0 size=  100617kB time=00:02:35.48 bitrate=5301.1kbits/s speed=   1x    frame= 4678 fps= 30 q=-1.0 size=  100885kB time=00:02:36.00 bitrate=5297.7kbits/s speed=   1x    frame= 4694 fps= 30 q=-1.0 size=  101594kB time=00:02:36.51 bitrate=5317.5kbits/s speed=   1x    frame= 4710 fps= 30 q=-1.0 size=  102170kB time=00:02:37.02 bitrate=5330.3kbits/s speed=   1x    frame= 4724 fps= 30 q=-1.0 size=  102497kB time=00:02:37.51 bitrate=5330.6kbits/s speed=   1x    frame= 4740 fps= 30 q=-1.0 size=  102752kB time=00:02:38.02 bitrate=5326.8kbits/s speed=   1x    frame= 4753 fps= 30 q=-1.0 size=  103197kB time=00:02:38.51 bitrate=5333.1kbits/s speed=   1x    frame= 4769 fps= 30 q=-1.0 size=  103454kB time=00:02:39.03 bitrate=5329.1kbits/s speed=   1x    frame= 4785 fps= 30 q=-1.0 size=  103680kB time=00:02:39.52 bitrate=5324.3kbits/s speed=   1x    frame= 4801 fps= 30 q=-1.0 size=  103936kB time=00:02:40.05 bitrate=5319.7kbits/s speed=   1x    frame= 4815 fps= 30 q=-1.0 size=  104372kB time=00:02:40.52 bitrate=5326.5kbits/s speed=   1x    frame= 4831 fps= 30 q=-1.0 size=  104606kB time=00:02:41.05 bitrate=5320.7kbits/s speed=   1x    frame= 4844 fps= 30 q=-1.0 size=  104840kB time=00:02:41.54 bitrate=5316.4kbits/s speed=   1x    frame= 4860 fps= 30 q=-1.0 size=  105109kB time=00:02:42.06 bitrate=5313.2kbits/s speed=   1x    frame= 4876 fps= 30 q=-1.0 size=  105549kB time=00:02:42.55 bitrate=5319.1kbits/s speed=   1x    frame= 4892 fps= 30 q=-1.0 size=  105987kB time=00:02:43.08 bitrate=5323.8kbits/s speed=   1x    frame= 4905 fps= 30 q=-1.0 size=  106251kB time=00:02:43.57 bitrate=5321.2kbits/s speed=   1x    frame= 4921 fps= 30 q=-1.0 size=  106780kB time=00:02:44.08 bitrate=5331.0kbits/s speed=   1x    frame= 4937 fps= 30 q=-1.0 size=  106987kB time=00:02:44.58 bitrate=5325.0kbits/s speed=   1x    frame= 4953 fps= 30 q=-1.0 size=  107251kB time=00:02:45.12 bitrate=5320.9kbits/s speed=   1x    frame= 4967 fps= 30 q=-1.0 size=  107502kB time=00:02:45.60 bitrate=5317.9kbits/s speed=   1x    frame= 4982 fps= 30 q=-1.0 size=  107972kB time=00:02:46.11 bitrate=5324.7kbits/s speed=   1x    frame= 4998 fps= 30 q=-1.0 size=  108173kB time=00:02:46.62 bitrate=5318.3kbits/s speed=   1x    frame= 5014 fps= 30 q=-1.0 size=  108418kB time=00:02:47.15 bitrate=5313.3kbits/s speed=   1x    frame= 5027 fps= 30 q=-1.0 size=  108657kB time=00:02:47.62 bitrate=5310.1kbits/s speed=   1x    frame= 5042 fps= 30 q=-1.0 size=  109138kB time=00:02:48.14 bitrate=5317.3kbits/s speed=   1x    frame= 5058 fps= 30 q=-1.0 size=  109477kB time=00:02:48.65 bitrate=5317.7kbits/s speed=   1x    frame= 5074 fps= 30 q=-1.0 size=  110184kB time=00:02:49.15 bitrate=5336.1kbits/s speed=   1x    frame= 5087 fps= 30 q=-1.0 size=  110734kB time=00:02:49.65 bitrate=5346.9kbits/s speed=   1x    [mpegts @ 0xaaaaf0eb82b0] Packet corrupt (stream = 0, dts = 15427920).
frame= 5100 fps= 30 q=-1.0 size=  111071kB time=00:02:50.10 bitrate=5349.1kbits/s speed=0.996x    [mpegts @ 0xaaaaf0eb82b0] DTS 130920 < 15427920 out of order
frame= 5116 fps= 30 q=-1.0 size=  111410kB time=00:02:50.68 bitrate=5347.3kbits/s speed=0.996x    frame= 5132 fps= 30 q=-1.0 size=  111722kB time=00:02:51.21 bitrate=5345.5kbits/s speed=0.996x    frame= 5147 fps= 30 q=-1.0 size=  112041kB time=00:02:51.71 bitrate=5345.2kbits/s speed=0.996x    frame= 5163 fps= 30 q=-1.0 size=  112478kB time=00:02:52.24 bitrate=5349.4kbits/s speed=0.996x    frame= 5179 fps= 30 q=-1.0 size=  112683kB time=00:02:52.78 bitrate=5342.6kbits/s speed=0.996x    frame= 5193 fps= 30 q=-1.0 size=  112883kB time=00:02:53.24 bitrate=5337.7kbits/s speed=0.996x    frame= 5209 fps= 30 q=-1.0 size=  113154kB time=00:02:53.78 bitrate=5334.1kbits/s speed=0.996x    frame= 5225 fps= 30 q=-1.0 size=  113594kB time=00:02:54.31 bitrate=5338.5kbits/s speed=0.996x    frame= 5238 fps= 30 q=-1.0 size=  113768kB time=00:02:54.74 bitrate=5333.4kbits/s speed=0.996x    frame= 5254 fps= 30 q=-1.0 size=  113994kB time=00:02:55.28 bitrate=5327.7kbits/s speed=0.996x    frame= 5270 fps= 30 q=-1.0 size=  114256kB time=00:02:55.81 bitrate=5323.7kbits/s speed=0.996x    frame= 5305 fps= 30 q=-1.0 size=  115072kB time=00:02:56.98 bitrate=5326.4kbits/s speed=0.996x    frame= 5321 fps= 30 q=-1.0 size=  115520kB time=00:02:57.51 bitrate=5331.1kbits/s speed=0.996x    frame= 5336 fps= 30 q=-1.0 size=  115797kB time=00:02:58.01 bitrate=5328.9kbits/s speed=0.996x    frame= 5352 fps= 30 q=-1.0 size=  116331kB time=00:02:58.54 bitrate=5337.5kbits/s speed=0.996x    frame= 5366 fps= 30 q=-1.0 size=  116544kB time=00:02:59.01 bitrate=5333.3kbits/s speed=0.996x    frame= 5381 fps= 30 q=-1.0 size=  116801kB time=00:02:59.51 bitrate=5330.2kbits/s speed=0.996x    frame= 5398 fps= 30 q=-1.0 size=  117118kB time=00:03:00.08 bitrate=5327.8kbits/s speed=0.997x    frame= 5411 fps= 30 q=-1.0 size=  117566kB time=00:03:00.52 bitrate=5335.0kbits/s speed=0.996x    frame= 5447 fps= 30 q=-1.0 size=  118193kB time=00:03:01.74 bitrate=5327.6kbits/s speed=   1x    frame= 5457 fps= 30 q=-1.0 size=  118369kB time=00:03:02.04 bitrate=5326.6kbits/s speed=0.996x    frame= 5473 fps= 30 q=-1.0 size=  118875kB time=00:03:02.58 bitrate=5333.7kbits/s speed=0.997x    frame= 5489 fps= 30 q=-1.0 size=  119223kB time=00:03:03.11 bitrate=5333.7kbits/s speed=0.997x    frame= 5504 fps= 30 q=-1.0 size=  119560kB time=00:03:03.61 bitrate=5334.1kbits/s speed=0.997x    frame= 5520 fps= 30 q=-1.0 size=  119897kB time=00:03:04.15 bitrate=5333.6kbits/s speed=0.997x    frame= 5536 fps= 30 q=-1.0 size=  120418kB time=00:03:04.68 bitrate=5341.3kbits/s speed=0.997x    